<svg width="26" height="30" viewBox="0 0 26 30" fill="none" xmlns="http://www.w3.org/2000/svg">
<path fill-rule="evenodd" clip-rule="evenodd" d="M22.1544 24.1923L17.0987 19.164C20.6411 15.5997 20.749 9.87813 17.3436 6.18274C13.9382 2.48736 8.22682 2.12846 4.38557 5.36848C0.544312 8.60849 -0.0648403 14.2986 3.00351 18.2783C6.07185 22.258 11.7297 23.1163 15.8403 20.2255L20.9944 25.3796C21.3178 25.681 21.8217 25.6721 22.1342 25.3595C22.4468 25.047 22.4557 24.5431 22.1544 24.2197V24.1923ZM2.83398 12.5986C2.83398 8.36802 6.26352 4.93848 10.4941 4.93848C14.7246 4.93848 18.1542 8.36802 18.1542 12.5986C18.1542 16.8291 14.7246 20.2587 10.4941 20.2587C6.26352 20.2587 2.83398 16.8291 2.83398 12.5986Z" fill="white"/>
<path d="M22.1544 24.1923H22.6544V23.9844L22.5069 23.8378L22.1544 24.1923ZM17.0987 19.164L16.7441 18.8116L16.3917 19.1661L16.7461 19.5185L17.0987 19.164ZM15.8403 20.2255L16.1938 19.8719L15.8965 19.5747L15.5526 19.8165L15.8403 20.2255ZM20.9944 25.3796L20.6408 25.7332L20.6471 25.7394L20.6535 25.7454L20.9944 25.3796ZM22.1544 24.2197H21.6544V24.4165L21.7885 24.5605L22.1544 24.2197ZM22.5069 23.8378L17.4513 18.8095L16.7461 19.5185L21.8018 24.5468L22.5069 23.8378ZM17.4533 19.5165C21.1844 15.7624 21.2981 9.73609 17.7113 5.84391L16.9759 6.52158C20.2 10.0202 20.0978 15.4371 16.7441 18.8116L17.4533 19.5165ZM17.7113 5.84391C14.1245 1.95173 8.10901 1.57372 4.06319 4.98628L4.70794 5.75067C8.34464 2.6832 13.7518 3.02298 16.9759 6.52158L17.7113 5.84391ZM4.06319 4.98628C0.017377 8.39884 -0.624214 14.3919 2.60753 18.5836L3.39948 17.973C0.494533 14.2052 1.07125 8.81815 4.70794 5.75067L4.06319 4.98628ZM2.60753 18.5836C5.83928 22.7752 11.7985 23.6792 16.1279 20.6345L15.5526 19.8165C11.661 22.5533 6.30443 21.7408 3.39948 17.973L2.60753 18.5836ZM15.4867 20.579L20.6408 25.7332L21.348 25.0261L16.1938 19.8719L15.4867 20.579ZM20.6535 25.7454C21.1739 26.2303 21.9848 26.216 22.4878 25.7131L21.7807 25.006C21.6586 25.1281 21.4616 25.1316 21.3353 25.0138L20.6535 25.7454ZM22.4878 25.7131C22.9907 25.2101 23.0051 24.3992 22.5202 23.8788L21.7885 24.5605C21.9063 24.6869 21.9028 24.8838 21.7807 25.006L22.4878 25.7131ZM22.6544 24.2197V24.1923H21.6544V24.2197H22.6544ZM3.33398 12.5986C3.33398 8.64416 6.53967 5.43848 10.4941 5.43848V4.43848C5.98738 4.43848 2.33398 8.09187 2.33398 12.5986H3.33398ZM10.4941 5.43848C14.4485 5.43848 17.6542 8.64416 17.6542 12.5986H18.6542C18.6542 8.09187 15.0008 4.43848 10.4941 4.43848V5.43848ZM17.6542 12.5986C17.6542 16.553 14.4485 19.7587 10.4941 19.7587V20.7587C15.0008 20.7587 18.6542 17.1053 18.6542 12.5986H17.6542ZM10.4941 19.7587C6.53967 19.7587 3.33398 16.553 3.33398 12.5986H2.33398C2.33398 17.1053 5.98738 20.7587 10.4941 20.7587V19.7587Z" fill="white"/>
</svg>
