<svg width="23" height="24" viewBox="0 0 23 24" fill="none" xmlns="http://www.w3.org/2000/svg">
<path d="M1.5 1.91675C1.08579 1.91675 0.75 2.25253 0.75 2.66675C0.75 3.08096 1.08579 3.41675 1.5 3.41675L1.5 1.91675ZM4.25463 2.66675L4.98224 2.48485C4.89877 2.15097 4.59878 1.91675 4.25463 1.91675V2.66675ZM19.1296 17.7408C19.5438 17.7408 19.8796 17.405 19.8796 16.9908C19.8796 16.5766 19.5438 16.2408 19.1296 16.2408V17.7408ZM21.3333 4.87045L22.0609 5.05235C22.117 4.8283 22.0666 4.59093 21.9245 4.40889C21.7824 4.22686 21.5643 4.12045 21.3333 4.12045V4.87045ZM19.1296 13.6853V14.4353C19.4738 14.4353 19.7738 14.201 19.8572 13.8672L19.1296 13.6853ZM1.5 3.41675H4.25463V1.91675H1.5L1.5 3.41675ZM3.52702 2.84865L4.07795 5.05235L5.53316 4.68855L4.98224 2.48485L3.52702 2.84865ZM4.07795 5.05235L6.28165 13.8672L7.73687 13.5034L5.53316 4.68855L4.07795 5.05235ZM7.00926 12.9353H6.45833V14.4353H7.00926V12.9353ZM6.45833 17.7408H19.1296V16.2408H6.45833V17.7408ZM4.05556 15.338C4.05556 16.6651 5.13132 17.7408 6.45833 17.7408V16.2408C5.95974 16.2408 5.55556 15.8366 5.55556 15.338H4.05556ZM6.45833 12.9353C5.13132 12.9353 4.05556 14.011 4.05556 15.338H5.55556C5.55556 14.8395 5.95974 14.4353 6.45833 14.4353V12.9353ZM4.80556 5.62045H21.3333V4.12045H4.80556V5.62045ZM20.6057 4.68855L18.402 13.5034L19.8572 13.8672L22.0609 5.05235L20.6057 4.68855ZM19.1296 12.9353H7.00926V14.4353H19.1296V12.9353ZM18.3796 21.3982C18.3796 21.5926 18.2221 21.7501 18.0278 21.7501V23.2501C19.0505 23.2501 19.8796 22.421 19.8796 21.3982H18.3796ZM18.0278 21.7501C17.8335 21.7501 17.6759 21.5926 17.6759 21.3982H16.1759C16.1759 22.421 17.005 23.2501 18.0278 23.2501V21.7501ZM17.6759 21.3982C17.6759 21.2039 17.8335 21.0464 18.0278 21.0464V19.5464C17.005 19.5464 16.1759 20.3755 16.1759 21.3982H17.6759ZM18.0278 21.0464C18.2221 21.0464 18.3796 21.2039 18.3796 21.3982H19.8796C19.8796 20.3755 19.0505 19.5464 18.0278 19.5464V21.0464ZM7.36111 21.3982C7.36111 21.5926 7.20358 21.7501 7.00926 21.7501V23.2501C8.03201 23.2501 8.86111 22.421 8.86111 21.3982H7.36111ZM7.00926 21.7501C6.81494 21.7501 6.65741 21.5926 6.65741 21.3982H5.15741C5.15741 22.421 5.98651 23.2501 7.00926 23.2501V21.7501ZM6.65741 21.3982C6.65741 21.2039 6.81494 21.0464 7.00926 21.0464V19.5464C5.98651 19.5464 5.15741 20.3755 5.15741 21.3982H6.65741ZM7.00926 21.0464C7.20358 21.0464 7.36111 21.2039 7.36111 21.3982H8.86111C8.86111 20.3755 8.03201 19.5464 7.00926 19.5464V21.0464Z" fill="white"/>
</svg>
