<svg width="24" height="24" viewBox="0 0 24 24" fill="none" xmlns="http://www.w3.org/2000/svg">
<path d="M5.04745 7.80038C5.39958 4.50187 8.18275 2 11.5 2V2C14.8172 2 17.6004 4.50187 17.9525 7.80038L18.2779 10.8482C18.3203 11.2453 18.3415 11.4439 18.3722 11.6394C18.5039 12.4781 18.7683 13.2905 19.1555 14.0461C19.2457 14.2221 19.3454 14.3951 19.5449 14.7412L20.2712 16.0011C21.0397 17.3341 21.4239 18.0006 21.1351 18.5003C20.8464 19 20.0771 19 18.5385 19H4.46146C2.92289 19 2.1536 19 1.86487 18.5003C1.57614 18.0006 1.96034 17.3341 2.72875 16.0011L3.45508 14.7412C3.65457 14.3951 3.75432 14.2221 3.84452 14.0461C4.23166 13.2905 4.49606 12.4781 4.6278 11.6394C4.65849 11.4439 4.67969 11.2453 4.72209 10.8482L5.04745 7.80038Z" stroke="white" stroke-width="1.5"/>
<path d="M8.11926 19.0353C8.31867 19.8858 8.75808 20.6374 9.36933 21.1734C9.98059 21.7094 10.7295 22 11.5 22C12.2705 22 13.0194 21.7095 13.6307 21.1734C14.2419 20.6374 14.6813 19.8858 14.8807 19.0353" stroke="white" stroke-width="1.5" stroke-linecap="round"/>
</svg>
