<svg width="16" height="16" viewBox="0 0 16 16" fill="none" xmlns="http://www.w3.org/2000/svg">
<path fill-rule="evenodd" clip-rule="evenodd" d="M15.2008 3.1999C15.2008 3.41208 15.1165 3.61556 14.9665 3.76559C14.8164 3.91562 14.613 3.9999 14.4008 3.9999H1.60078C1.38861 3.9999 1.18512 3.91562 1.0351 3.76559C0.885067 3.61556 0.800781 3.41208 0.800781 3.1999C0.800781 2.98773 0.885067 2.78425 1.0351 2.63422C1.18512 2.48419 1.38861 2.3999 1.60078 2.3999H14.4008C14.613 2.3999 14.8164 2.48419 14.9665 2.63422C15.1165 2.78425 15.2008 2.98773 15.2008 3.1999ZM15.2008 7.9999C15.2008 8.21208 15.1165 8.41556 14.9665 8.56559C14.8164 8.71562 14.613 8.7999 14.4008 8.7999H1.60078C1.38861 8.7999 1.18512 8.71562 1.0351 8.56559C0.885067 8.41556 0.800781 8.21208 0.800781 7.9999C0.800781 7.78773 0.885067 7.58425 1.0351 7.43422C1.18512 7.28419 1.38861 7.1999 1.60078 7.1999H14.4008C14.613 7.1999 14.8164 7.28419 14.9665 7.43422C15.1165 7.58425 15.2008 7.78773 15.2008 7.9999ZM14.4008 13.5999C14.613 13.5999 14.8164 13.5156 14.9665 13.3656C15.1165 13.2156 15.2008 13.0121 15.2008 12.7999C15.2008 12.5877 15.1165 12.3842 14.9665 12.2342C14.8164 12.0842 14.613 11.9999 14.4008 11.9999H1.60078C1.38861 11.9999 1.18512 12.0842 1.0351 12.2342C0.885067 12.3842 0.800781 12.5877 0.800781 12.7999C0.800781 13.0121 0.885067 13.2156 1.0351 13.3656C1.18512 13.5156 1.38861 13.5999 1.60078 13.5999H14.4008Z" fill="white"/>
</svg>
